<svg width="1920" height="1080" viewBox="0 0 1920 1080" fill="none" xmlns="http://www.w3.org/2000/svg">
<rect width="1920" height="1080" fill="black"/>
<path d="M180.338 506.7H194.474L220.018 530.756V549.48L195.962 526.292V578H180.338V506.7ZM250.15 557.912V506.7H265.774V578H251.142L225.598 553.448V535.344L250.15 557.912ZM288.053 506.7V569.568L302.189 578H327.733V563.492H303.677V506.7H288.053ZM373.489 506.7V569.568L359.477 578H333.809V563.492H357.865V506.7H373.489ZM465.327 578.124H439.659V563.492H463.839V549.356H439.659V535.344H463.839V520.712H439.659V506.576H465.327L479.463 515.132V536.336L467.807 542.288L479.463 547.868V569.568L465.327 578.124ZM409.403 554.936V563.492H433.583V578.124H407.915L393.283 569.568V554.936H409.403ZM393.779 529.268V515.132L407.915 506.576H433.583V520.712H409.403V529.268H393.779ZM433.583 549.356H417.959V535.344H433.583V549.356ZM531.725 506.452V578L517.589 577.876V523.44L491.921 534.104V517.984L517.589 506.452H531.725ZM591.209 506.7H606.833V535.344H630.889V549.48H606.833V578H591.209V506.7ZM676.645 506.7H661.021V535.344H636.965V549.48H661.021V578H676.645V506.7ZM698.924 515.256V578H714.548V549.48H738.604V535.344H714.548V520.712H738.604V506.7H713.06L698.924 515.256ZM784.36 515.256V578H768.736V549.48H744.184V535.344H768.736V520.712H744.184V506.7H769.728L784.36 515.256ZM796.525 515.256L811.033 506.7H836.701V520.712H812.645V563.492H836.205V578H811.033L796.525 569.568V515.256ZM866.337 554.936V563.492H842.777V578H867.949L882.457 569.568V554.936H866.337ZM882.457 529.392V515.256L867.949 506.7H842.281V520.712H866.337V529.392H882.457ZM904.72 506.7V578H920.344V549.48H927.288V535.344H920.344V506.7H904.72ZM944.4 542.412L990.156 570.932L975.524 578L931.876 549.48V535.344L975.524 506.7L990.156 513.768L944.4 542.412ZM1003.78 506.7H1043.46V521.332H1019.4V535.344H1043.46V549.48H1019.4V563.988H1042.96V578H1003.78V506.7ZM1049.53 563.988V578H1089.21V563.988H1049.53ZM1089.21 521.332V506.7H1049.04V521.332H1089.21ZM1069.12 549.48V535.344H1049.04V549.48H1069.12ZM1105.37 506.7H1145.05V521.332H1121V535.344H1145.05V549.852H1121V578H1105.37V506.7ZM1190.81 578V548.488L1179.15 542.412L1190.81 536.832V515.256L1176.18 506.7H1150.63V521.332H1175.18V535.344H1150.63V549.852H1175.18V578H1190.81ZM1245.39 515.256V541.42L1259.53 549.852H1285.07V535.344H1260.52V521.332H1285.07V506.7H1259.53L1245.39 515.256ZM1330.83 543.9V569.568L1316.19 578H1291.15V563.988H1315.2V549.852H1290.65V535.344H1316.19L1330.83 543.9ZM1261.01 555.432H1245.39V569.568L1259.9 578H1285.07V563.988H1261.01V555.432ZM1330.83 529.764H1315.2V521.332H1290.65V506.7H1316.19L1330.83 515.256V529.764ZM1351.92 506.7H1392.1V520.712H1368.04V535.344H1392.1V549.852H1368.04V578H1351.92V506.7ZM1437.85 541.42V515.256L1423.34 506.7H1397.68V520.712H1421.73V535.344H1397.68V549.852H1423.34L1437.85 541.42ZM1450.07 515.256V578H1465.69V549.48H1489.75V535.344H1465.69V520.712H1489.75V506.7H1464.2L1450.07 515.256ZM1535.5 515.256V578H1519.88V549.48H1495.33V535.344H1519.88V520.712H1495.33V506.7H1520.87L1535.5 515.256ZM1547.67 515.256L1562.18 506.7H1587.85V520.712H1563.79V563.492H1587.35V578H1562.18L1547.67 569.568V515.256ZM1617.48 554.936V563.492H1593.92V578H1619.09L1633.6 569.568V554.936H1617.48ZM1633.6 529.392V515.256L1619.09 506.7H1593.43V520.712H1617.48V529.392H1633.6ZM1655.86 506.7H1695.54V521.332H1671.49V535.344H1695.54V549.48H1671.49V563.988H1695.05V578H1655.86V506.7ZM1701.62 563.988V578H1741.3V563.988H1701.62ZM1741.3 521.332V506.7H1701.12V521.332H1741.3ZM1721.21 549.48V535.344H1701.12V549.48H1721.21Z" fill="white"/>
</svg>
